<mxfile host="app.diagrams.net" modified="2021-03-06T13:01:33.063Z" agent="5.0 (X11)" etag="GZNSCfhPLK-OkqGcWFp8" version="14.4.4" type="github">
  <diagram id="C5RBs43oDa-KdzZeNtuy" name="Page-1">
    <mxGraphModel dx="1100" dy="618" grid="1" gridSize="10" guides="1" tooltips="1" connect="1" arrows="1" fold="1" page="1" pageScale="1" pageWidth="827" pageHeight="1169" math="0" shadow="0">
      <root>
        <mxCell id="WIyWlLk6GJQsqaUBKTNV-0" />
        <mxCell id="WIyWlLk6GJQsqaUBKTNV-1" parent="WIyWlLk6GJQsqaUBKTNV-0" />
        <mxCell id="4q4iebFClX0E_7xJdS0V-0" value="Reference&lt;br&gt;(PCr)" style="text;html=1;strokeColor=none;fillColor=none;align=center;verticalAlign=middle;whiteSpace=wrap;rounded=0;" vertex="1" parent="WIyWlLk6GJQsqaUBKTNV-1">
          <mxGeometry x="20" y="130" width="80" height="20" as="geometry" />
        </mxCell>
        <mxCell id="4q4iebFClX0E_7xJdS0V-1" value="&lt;div&gt;Degraded&lt;/div&gt;(PCd)" style="text;html=1;strokeColor=none;fillColor=none;align=center;verticalAlign=middle;whiteSpace=wrap;rounded=0;" vertex="1" parent="WIyWlLk6GJQsqaUBKTNV-1">
          <mxGeometry x="20" y="189" width="80" height="20" as="geometry" />
        </mxCell>
        <object label="" id="4q4iebFClX0E_7xJdS0V-2">
          <mxCell style="rounded=0;whiteSpace=wrap;html=1;" vertex="1" parent="WIyWlLk6GJQsqaUBKTNV-1">
            <mxGeometry x="140" y="60" width="120" height="50" as="geometry" />
          </mxCell>
        </object>
        <mxCell id="4q4iebFClX0E_7xJdS0V-3" value="" style="rounded=0;whiteSpace=wrap;html=1;" vertex="1" parent="WIyWlLk6GJQsqaUBKTNV-1">
          <mxGeometry x="140" y="174" width="120" height="50" as="geometry" />
        </mxCell>
        <mxCell id="4q4iebFClX0E_7xJdS0V-9" value="&lt;div&gt;Normals calculation (G-PCr)&lt;br&gt;&lt;/div&gt;" style="text;html=1;strokeColor=none;fillColor=none;align=center;verticalAlign=middle;whiteSpace=wrap;rounded=0;" vertex="1" parent="WIyWlLk6GJQsqaUBKTNV-1">
          <mxGeometry x="170" y="75" width="50" height="15" as="geometry" />
        </mxCell>
        <mxCell id="4q4iebFClX0E_7xJdS0V-10" value="&lt;div&gt;Voxelization&lt;/div&gt;&lt;div&gt;(C-PCr)&lt;br&gt;&lt;/div&gt;" style="text;html=1;strokeColor=none;fillColor=none;align=center;verticalAlign=middle;whiteSpace=wrap;rounded=0;" vertex="1" parent="WIyWlLk6GJQsqaUBKTNV-1">
          <mxGeometry x="170" y="189" width="50" height="21" as="geometry" />
        </mxCell>
        <mxCell id="4q4iebFClX0E_7xJdS0V-11" value="" style="endArrow=classic;html=1;entryX=0;entryY=0.5;entryDx=0;entryDy=0;" edge="1" parent="WIyWlLk6GJQsqaUBKTNV-1" target="4q4iebFClX0E_7xJdS0V-3">
          <mxGeometry width="50" height="50" relative="1" as="geometry">
            <mxPoint x="100" y="140" as="sourcePoint" />
            <mxPoint x="130" y="200" as="targetPoint" />
          </mxGeometry>
        </mxCell>
        <mxCell id="4q4iebFClX0E_7xJdS0V-13" value="" style="endArrow=classic;html=1;entryX=0;entryY=0.5;entryDx=0;entryDy=0;" edge="1" parent="WIyWlLk6GJQsqaUBKTNV-1" target="4q4iebFClX0E_7xJdS0V-20">
          <mxGeometry width="50" height="50" relative="1" as="geometry">
            <mxPoint x="100" y="199" as="sourcePoint" />
            <mxPoint x="440" y="290" as="targetPoint" />
          </mxGeometry>
        </mxCell>
        <mxCell id="4q4iebFClX0E_7xJdS0V-14" value="" style="endArrow=classic;html=1;entryX=0;entryY=0.5;entryDx=0;entryDy=0;" edge="1" parent="WIyWlLk6GJQsqaUBKTNV-1" target="4q4iebFClX0E_7xJdS0V-18">
          <mxGeometry width="50" height="50" relative="1" as="geometry">
            <mxPoint x="100" y="199" as="sourcePoint" />
            <mxPoint x="140" y="199" as="targetPoint" />
          </mxGeometry>
        </mxCell>
        <mxCell id="4q4iebFClX0E_7xJdS0V-17" value="" style="endArrow=classic;html=1;entryX=0;entryY=0.5;entryDx=0;entryDy=0;" edge="1" parent="WIyWlLk6GJQsqaUBKTNV-1" target="4q4iebFClX0E_7xJdS0V-2">
          <mxGeometry width="50" height="50" relative="1" as="geometry">
            <mxPoint x="100" y="140" as="sourcePoint" />
            <mxPoint x="440" y="290" as="targetPoint" />
          </mxGeometry>
        </mxCell>
        <object label="" id="4q4iebFClX0E_7xJdS0V-18">
          <mxCell style="rounded=0;whiteSpace=wrap;html=1;" vertex="1" parent="WIyWlLk6GJQsqaUBKTNV-1">
            <mxGeometry x="140" y="115" width="120" height="50" as="geometry" />
          </mxCell>
        </object>
        <mxCell id="4q4iebFClX0E_7xJdS0V-19" value="&lt;div&gt;Normals calculation&lt;/div&gt;&lt;div&gt;(G-PCd)&lt;/div&gt;" style="text;html=1;strokeColor=none;fillColor=none;align=center;verticalAlign=middle;whiteSpace=wrap;rounded=0;" vertex="1" parent="WIyWlLk6GJQsqaUBKTNV-1">
          <mxGeometry x="170" y="130" width="50" height="20" as="geometry" />
        </mxCell>
        <mxCell id="4q4iebFClX0E_7xJdS0V-20" value="" style="rounded=0;whiteSpace=wrap;html=1;" vertex="1" parent="WIyWlLk6GJQsqaUBKTNV-1">
          <mxGeometry x="140" y="230" width="120" height="50" as="geometry" />
        </mxCell>
        <mxCell id="4q4iebFClX0E_7xJdS0V-21" value="Voxelization" style="text;html=1;strokeColor=none;fillColor=none;align=center;verticalAlign=middle;whiteSpace=wrap;rounded=0;" vertex="1" parent="WIyWlLk6GJQsqaUBKTNV-1">
          <mxGeometry x="170" y="244.5" width="50" height="21" as="geometry" />
        </mxCell>
      </root>
    </mxGraphModel>
  </diagram>
</mxfile>
